<svg width="20" height="20" viewBox="0 0 20 20" fill="none" xmlns="http://www.w3.org/2000/svg">
<g id="Frame 632913">
<path id="Union" fill-rule="evenodd" clip-rule="evenodd" d="M19.4513 7.1274C19.3857 5.4017 17.9336 4.05593 16.2079 4.12152L15.3543 4.15396L15.3219 3.30045C15.3062 2.88756 15.2111 2.49641 15.052 2.14115C14.5458 1.01155 13.3913 0.244638 12.0785 0.294536C10.3528 0.360126 9.00702 1.81225 9.07261 3.53794L9.07263 3.53797L9.34134 10.6082L9.34135 10.6082L9.37391 10.607L9.37515 10.6395L16.4454 10.3708C18.1711 10.3052 19.5169 8.85309 19.4513 7.1274Z" fill="#9AE89D"/>
<path id="Union_2" fill-rule="evenodd" clip-rule="evenodd" d="M2.98016 6.25084C5.87605 3.62782 8.56603 4.89843 10.3844 6.77963L10.6513 6.5378C11.0578 6.16951 12.0494 5.39336 13.2126 6.66128C15.6324 9.29997 14.0041 12.7405 13.9662 12.8195L13.9665 12.8208L8.61834 17.6655C8.61834 17.6655 5.59563 16.5045 2.89771 13.5629C1.13042 11.6357 0.0839765 8.87455 2.98016 6.25084ZM13.9661 12.8216L8.61786 17.6663L10.0867 19.2681C10.3572 19.5632 10.8155 19.5851 11.1111 19.3175L15.3898 15.4414C15.6853 15.1737 15.7055 14.7181 15.4349 14.4231L13.9661 12.8216Z" fill="#5678BE"/>
</g>
</svg>
