<svg width="101" height="15" viewBox="0 0 101 15" fill="none" xmlns="http://www.w3.org/2000/svg">
<g id="Frame 632910">
<path id="Vector" d="M94.9092 14.528C94.3545 14.528 93.8105 14.432 93.2772 14.24C92.7545 14.048 92.2798 13.7493 91.8532 13.344C91.4372 12.9493 91.1065 12.4533 90.8612 11.856C90.6158 11.248 90.4932 10.5387 90.4932 9.728C90.4932 8.81067 90.6318 8.02133 90.9092 7.36C91.1972 6.688 91.5758 6.13867 92.0452 5.712C92.5145 5.27467 93.0372 4.94933 93.6132 4.736C94.1892 4.52267 94.7652 4.416 95.3412 4.416C95.6825 4.416 96.0078 4.44267 96.3172 4.496C96.6265 4.53867 96.9145 4.60267 97.1812 4.688C97.2132 3.90933 97.2505 3.12533 97.2932 2.336C97.3465 1.54667 97.4052 0.768 97.4692 0L100.157 0.176001C100.072 1.06133 99.9972 2.016 99.9332 3.04C99.8692 4.05333 99.8212 5.088 99.7892 6.144C99.7678 7.2 99.7572 8.22933 99.7572 9.232C99.7572 10.1707 99.7678 11.0667 99.7892 11.92C99.8212 12.7627 99.8585 13.5307 99.9012 14.224L97.1332 14.432C97.1225 14.2293 97.1172 14.032 97.1172 13.84C96.8078 14.0427 96.4665 14.208 96.0932 14.336C95.7305 14.464 95.3358 14.528 94.9092 14.528ZM93.0692 9.584C93.0692 10.1387 93.1758 10.576 93.3892 10.896C93.6025 11.2053 93.8638 11.424 94.1732 11.552C94.4825 11.68 94.7812 11.744 95.0692 11.744C95.4105 11.744 95.7518 11.6693 96.0932 11.52C96.4345 11.3707 96.7545 11.1093 97.0532 10.736C97.0532 10.608 97.0532 10.4853 97.0532 10.368C97.0532 9.504 97.0638 8.61867 97.0852 7.712C96.5838 7.27467 96.0398 7.056 95.4532 7.056C95.2078 7.056 94.9465 7.09333 94.6692 7.168C94.3918 7.24267 94.1305 7.376 93.8852 7.568C93.6505 7.74933 93.4532 8.00533 93.2932 8.336C93.1438 8.656 93.0692 9.072 93.0692 9.584Z" fill="#5678BE"/>
<path id="Vector_2" d="M80.1458 14.416C80.1138 13.4773 80.0871 12.608 80.0658 11.808C80.0551 11.008 80.0498 10.2187 80.0498 9.44001C80.0498 8.66134 80.0551 7.88267 80.0658 7.10401C80.0871 6.31467 80.1191 5.47201 80.1618 4.57601H82.8658C82.8231 5.05601 82.7858 5.54134 82.7538 6.03201C83.1165 5.57334 83.5485 5.19467 84.0498 4.89601C84.5511 4.58667 85.1431 4.43201 85.8258 4.43201C86.4978 4.43201 87.0471 4.54401 87.4738 4.76801C87.9111 4.99201 88.2525 5.30134 88.4978 5.69601C88.7538 6.09067 88.9351 6.54401 89.0418 7.05601C89.1591 7.55734 89.2338 8.10134 89.2658 8.68801C89.2978 9.26401 89.3138 9.84534 89.3138 10.432C89.3138 11.072 89.3031 11.6853 89.2818 12.272C89.2605 12.8587 89.2391 13.3493 89.2178 13.744C89.1965 14.1387 89.1805 14.3733 89.1698 14.448H86.4818C86.5031 14.0107 86.5245 13.5467 86.5458 13.056C86.5671 12.5547 86.5885 12.064 86.6098 11.584C86.6311 11.0933 86.6418 10.6507 86.6418 10.256C86.6418 7.98401 86.2738 6.84801 85.5378 6.84801C84.9298 6.84801 84.3751 7.11467 83.8738 7.64801C83.3831 8.17067 82.9725 8.83201 82.6418 9.63201C82.6418 9.73867 82.6418 9.84534 82.6418 9.95201C82.6418 10.464 82.6418 10.9973 82.6418 11.552C82.6525 12.096 82.6631 12.6187 82.6738 13.12C82.6951 13.6107 82.7111 14.0373 82.7218 14.4L80.1458 14.416Z" fill="#5678BE"/>
<path id="Vector_3" d="M75.7514 2.928C75.7514 2.832 75.7461 2.736 75.7354 2.64C75.7354 2.53333 75.7354 2.416 75.7354 2.288C75.7354 1.94667 75.7461 1.584 75.7674 1.2C75.7888 0.816 75.8101 0.490666 75.8314 0.223999L78.6794 0.271999C78.6474 0.634666 78.6101 1.04533 78.5674 1.504C78.5354 1.96267 78.5141 2.43733 78.5034 2.928H75.7514ZM75.6874 14.384C75.6554 13.7227 75.6341 13.0187 75.6234 12.272C75.6128 11.5147 75.6074 10.7573 75.6074 10C75.6074 9.008 75.6181 8.04267 75.6394 7.104C75.6608 6.16533 75.6874 5.312 75.7194 4.544L78.4714 4.528C78.4288 5.01867 78.4021 5.62667 78.3914 6.352C78.3808 7.06667 78.3754 7.81867 78.3754 8.608C78.3754 9.38667 78.3808 10.1547 78.3914 10.912C78.4021 11.6693 78.4128 12.3573 78.4234 12.976C78.4448 13.584 78.4608 14.0533 78.4714 14.384H75.6874Z" fill="#5678BE"/>
<path id="Vector_4" d="M60.0802 14.432C60.0482 13.376 60.0322 12.3627 60.0322 11.392C60.0322 9.64266 60.0856 8.05866 60.1922 6.63999C60.2989 5.22132 60.4536 4.01599 60.6562 3.02399C60.7522 2.56532 60.8856 2.12266 61.0562 1.69599C61.2376 1.26932 61.4882 0.922657 61.8082 0.65599C62.1389 0.378657 62.5709 0.23999 63.1042 0.23999C63.6269 0.23999 64.0696 0.378657 64.4322 0.65599C64.7949 0.922657 65.0882 1.24799 65.3122 1.63199C65.5469 2.01599 65.7176 2.38399 65.8242 2.73599C66.1016 3.56799 66.3362 4.39999 66.5282 5.23199C66.7202 6.06399 66.8909 6.85866 67.0402 7.61599C67.1469 7.06132 67.2696 6.47999 67.4082 5.87199C67.5469 5.25332 67.6856 4.67199 67.8242 4.12799C67.9629 3.57332 68.0909 3.11466 68.2082 2.75199C68.7522 1.07732 69.5896 0.23999 70.7202 0.23999C71.3496 0.23999 71.8829 0.469323 72.3202 0.92799C72.7576 1.37599 73.0776 2.02666 73.2802 2.87999C73.3762 3.26399 73.4722 3.82399 73.5682 4.55999C73.6749 5.29599 73.7709 6.17066 73.8562 7.18399C73.9522 8.18666 74.0322 9.29599 74.0962 10.512C74.1709 11.728 74.2296 13.0187 74.2722 14.384L71.4562 14.32C71.4562 13.7547 71.4402 13.0987 71.4082 12.352C71.3869 11.6053 71.3496 10.832 71.2962 10.032C71.2536 9.22132 71.2002 8.43199 71.1362 7.66399C71.0829 6.89599 71.0242 6.20266 70.9602 5.58399C70.9069 4.96532 70.8536 4.47466 70.8002 4.11199C70.7469 3.73866 70.6989 3.55199 70.6562 3.55199C70.6456 3.55199 70.5869 3.74399 70.4802 4.12799C70.3842 4.50132 70.2616 5.00266 70.1122 5.63199C69.9736 6.26132 69.8189 6.95466 69.6482 7.71199C69.4776 8.46932 69.3069 9.23199 69.1362 9.99999C68.9762 10.7573 68.8322 11.4613 68.7042 12.112C68.5762 12.752 68.4749 13.2747 68.4002 13.68L65.8882 13.744C65.7602 13.1467 65.6056 12.4907 65.4242 11.776C65.2536 11.0507 65.0722 10.3147 64.8802 9.56799C64.6989 8.81066 64.5176 8.08532 64.3362 7.39199C64.1549 6.68799 63.9842 6.05866 63.8242 5.50399C63.6749 4.94932 63.5522 4.51199 63.4562 4.19199C63.3602 3.86132 63.3016 3.69599 63.2802 3.69599C63.2376 3.69599 63.1896 3.93066 63.1362 4.39999C63.0936 4.85866 63.0509 5.48266 63.0082 6.27199C62.9656 7.06132 62.9282 7.95199 62.8962 8.94399C62.8749 9.93599 62.8642 10.96 62.8642 12.016C62.8642 12.5173 62.8642 12.976 62.8642 13.392C62.8749 13.808 62.8856 14.1493 62.8962 14.416L60.0802 14.432Z" fill="#5678BE"/>
<path id="Vector_5" d="M45.9561 14.368C45.9561 13.7174 45.9561 12.8854 45.9561 11.872C45.9667 10.848 45.9774 9.71203 45.9881 8.46403C46.0094 7.21603 46.0361 5.90403 46.0681 4.52803C46.1107 3.15203 46.1587 1.77603 46.2121 0.400034L48.9321 0.384033C48.8894 0.992034 48.8467 1.73337 48.8041 2.60803C48.7614 3.4827 48.7241 4.42137 48.6921 5.42403C49.4281 4.74137 50.2707 4.40003 51.2201 4.40003C51.8707 4.40003 52.4094 4.51737 52.8361 4.75203C53.2734 4.9867 53.6254 5.29603 53.8921 5.68003C54.1587 6.05337 54.3614 6.46403 54.5001 6.91203C54.6387 7.36003 54.7347 7.8027 54.7881 8.24003C54.8414 8.6667 54.8681 9.04537 54.8681 9.37603C54.8681 10.08 54.8627 10.7787 54.8521 11.472C54.8414 12.1654 54.8307 12.7734 54.8201 13.296C54.8201 13.8187 54.8201 14.1867 54.8201 14.4L52.0201 14.416C52.0627 14 52.0894 13.52 52.1001 12.976C52.1214 12.432 52.1321 11.872 52.1321 11.296C52.1427 10.7094 52.1481 10.1547 52.1481 9.63203C52.1481 7.90403 51.7427 7.04003 50.9321 7.04003C50.6867 7.04003 50.4147 7.10403 50.1161 7.23203C49.8174 7.36003 49.5294 7.5627 49.2521 7.84003C48.9854 8.11737 48.7721 8.48537 48.6121 8.94403C48.6014 9.64804 48.5961 10.3307 48.5961 10.992C48.5961 11.6 48.6014 12.1707 48.6121 12.704C48.6334 13.2267 48.6494 13.7547 48.6601 14.288L45.9561 14.368Z" fill="#5678BE"/>
<path id="Vector_6" d="M40.1131 14.56C39.2171 14.56 38.3904 14.3733 37.6331 14C36.8758 13.6267 36.2678 13.0933 35.8091 12.4C35.3504 11.696 35.1211 10.8587 35.1211 9.88801C35.1211 8.80001 35.3344 7.84534 35.7611 7.02401C36.1878 6.20267 36.7851 5.56801 37.5531 5.12001C38.3211 4.66134 39.2171 4.43201 40.2411 4.43201C41.2224 4.43201 42.0544 4.63467 42.7371 5.04001C43.4198 5.43467 44.0278 6.06401 44.5611 6.92801L42.3371 8.46401C42.0384 7.98401 41.7344 7.62134 41.4251 7.37601C41.1158 7.12001 40.6944 6.99201 40.1611 6.99201C39.4358 6.99201 38.8491 7.24801 38.4011 7.76001C37.9531 8.26134 37.7291 8.93334 37.7291 9.77601C37.7291 10.2667 37.8464 10.6667 38.0811 10.976C38.3264 11.2853 38.6251 11.5147 38.9771 11.664C39.3291 11.8133 39.6598 11.888 39.9691 11.888C40.2891 11.888 40.5984 11.8507 40.8971 11.776C41.1958 11.6907 41.4784 11.5093 41.7451 11.232C42.0118 10.9547 42.2518 10.5333 42.4651 9.96801L44.8651 11.248C44.5451 11.8347 44.1878 12.3787 43.7931 12.88C43.3984 13.3813 42.9078 13.7867 42.3211 14.096C41.7451 14.4053 41.0091 14.56 40.1131 14.56Z" fill="#5678BE"/>
<path id="Vector_7" d="M30.8176 14.528C30.1776 14.528 29.6709 14.3893 29.2976 14.112C28.9242 13.8453 28.6522 13.472 28.4816 12.992C28.3109 12.512 28.1989 11.9627 28.1456 11.344C28.1029 10.7253 28.0816 10.0747 28.0816 9.39199C28.0816 8.68799 28.1082 7.95732 28.1616 7.19999C27.4469 7.29599 26.7589 7.41865 26.0976 7.56799L25.6016 5.05599C26.4869 4.82132 27.4309 4.65065 28.4336 4.54399C28.5082 3.99999 28.5882 3.42932 28.6736 2.83199C28.7589 2.22399 28.8549 1.58399 28.9616 0.911987L31.7136 1.15199C31.5856 1.70665 31.4736 2.26132 31.3776 2.81599C31.2816 3.35999 31.1962 3.88799 31.1216 4.39999C31.7189 4.39999 32.2789 4.41599 32.8016 4.44799C33.3349 4.46932 33.8256 4.51199 34.2736 4.57599L33.9536 7.08799C33.5802 7.04532 33.1909 7.01865 32.7856 7.00799C32.3909 6.98665 31.9909 6.97599 31.5856 6.97599C31.3402 6.97599 31.0949 6.98132 30.8496 6.99199C30.7856 7.77065 30.7429 8.43732 30.7216 8.99199C30.7109 9.54665 30.7056 9.94132 30.7056 10.176C30.7056 10.7627 30.7376 11.184 30.8016 11.44C30.8762 11.696 30.9936 11.824 31.1536 11.824C31.3349 11.824 31.5376 11.7653 31.7616 11.648C31.9856 11.52 32.2042 11.3493 32.4176 11.136C32.6416 10.9227 32.8282 10.6933 32.9776 10.448L34.2096 13.024C33.1536 14.0267 32.0229 14.528 30.8176 14.528Z" fill="#5678BE"/>
<path id="Vector_8" d="M18.3778 14.528C17.5778 14.528 16.8525 14.32 16.2018 13.904C15.5512 13.4987 15.0338 12.9494 14.6498 12.256C14.2765 11.552 14.0898 10.768 14.0898 9.90404C14.0898 9.09338 14.2392 8.36271 14.5378 7.71204C14.8365 7.05071 15.2418 6.48538 15.7538 6.01604C16.2765 5.54671 16.8685 5.18938 17.5298 4.94404C18.1912 4.68804 18.8845 4.56004 19.6098 4.56004C20.2178 4.56004 20.8152 4.64538 21.4018 4.81604C21.4445 4.59204 21.4818 4.36804 21.5138 4.14404L24.2498 4.60804C24.1752 4.81071 24.1005 5.11471 24.0258 5.52004C23.9512 5.92538 23.8872 6.37871 23.8338 6.88004C23.7912 7.38138 23.7538 7.88271 23.7218 8.38404C23.6898 8.88538 23.6738 9.33871 23.6738 9.74404C23.6738 10.0747 23.6952 10.4 23.7378 10.72C23.7912 11.0294 23.8978 11.2854 24.0578 11.488C24.2178 11.68 24.4632 11.776 24.7938 11.776H25.0178L24.6178 14.56C23.9138 14.56 23.3325 14.4374 22.8738 14.192C22.4152 13.9574 22.0472 13.6374 21.7698 13.232C21.3112 13.744 20.7885 14.0854 20.2018 14.256C19.6152 14.4374 19.0072 14.528 18.3778 14.528ZM16.7138 10.224C16.7672 10.736 16.9752 11.1467 17.3378 11.456C17.7112 11.7547 18.1805 11.904 18.7458 11.904C19.2898 11.904 19.7432 11.76 20.1058 11.472C20.4685 11.1734 20.7672 10.768 21.0018 10.256C20.9912 10.0854 20.9858 9.90938 20.9858 9.72804C20.9858 9.35471 20.9965 8.97071 21.0178 8.57604C21.0392 8.18138 21.0658 7.79204 21.0978 7.40804C20.6498 7.23738 20.1805 7.15204 19.6898 7.15204C19.1138 7.15204 18.5965 7.26938 18.1378 7.50404C17.6898 7.72804 17.3378 8.04271 17.0818 8.44804C16.8258 8.85338 16.6978 9.32271 16.6978 9.85604C16.6978 9.92004 16.6978 9.98404 16.6978 10.048C16.6978 10.112 16.7032 10.1707 16.7138 10.224Z" fill="#5678BE"/>
<path id="Vector_9" d="M6.4 14.544C5.09867 14.544 3.968 14.256 3.008 13.68C2.048 13.1147 1.30667 12.3147 0.784 11.28C0.261333 10.2453 0 9.02399 0 7.61599C0 7.08266 0.0640001 6.49066 0.192 5.83999C0.330667 5.17866 0.549333 4.52266 0.848 3.87199C1.14667 3.21066 1.54667 2.60799 2.048 2.06399C2.54933 1.51999 3.16267 1.08266 3.888 0.751989C4.61333 0.410657 5.46667 0.23999 6.448 0.23999C7.29067 0.23999 8.02667 0.346657 8.656 0.55999C9.28533 0.762657 9.82933 1.02399 10.288 1.34399C10.7467 1.65332 11.1253 1.97866 11.424 2.31999C11.7333 2.66132 11.9787 2.97599 12.16 3.26399C12.3413 3.54132 12.4747 3.74399 12.56 3.87199L10.24 5.64799C10.0053 5.21066 9.728 4.78399 9.408 4.36799C9.088 3.94132 8.69333 3.58932 8.224 3.31199C7.75467 3.03466 7.17333 2.89599 6.48 2.89599C5.76533 2.89599 5.17333 3.05599 4.704 3.37599C4.23467 3.69599 3.86133 4.10132 3.584 4.59199C3.31733 5.08266 3.13067 5.60532 3.024 6.15999C2.91733 6.70399 2.864 7.21066 2.864 7.67999C2.864 8.18132 2.91733 8.67732 3.024 9.16799C3.13067 9.65866 3.312 10.1067 3.568 10.512C3.83467 10.9173 4.18667 11.2427 4.624 11.488C5.072 11.7227 5.632 11.84 6.304 11.84C7.05067 11.84 7.65867 11.7067 8.128 11.44C8.608 11.1733 9.008 10.8 9.328 10.32C9.648 9.82932 9.94667 9.25866 10.224 8.60799L12.848 9.79199C12.3787 10.7627 11.8507 11.6053 11.264 12.32C10.6773 13.0347 9.98933 13.584 9.2 13.968C8.41067 14.352 7.47733 14.544 6.4 14.544Z" fill="#5678BE"/>
</g>
</svg>
