<svg width="8" height="14" viewBox="0 0 8 14" fill="none" xmlns="http://www.w3.org/2000/svg">
<path id="shape" d="M0.540381 12.5404C0.28654 12.7942 0.28654 13.2058 0.54038 13.4596C0.794221 13.7135 1.20578 13.7135 1.45962 13.4596L0.540381 12.5404ZM7 7L7.45962 7.45962C7.71346 7.20578 7.71346 6.79422 7.45962 6.54038L7 7ZM1.45962 0.54038C1.20578 0.28654 0.794223 0.286539 0.540382 0.54038C0.286541 0.79422 0.286541 1.20578 0.540381 1.45962L1.45962 0.54038ZM1.45962 13.4596L7.45962 7.45962L6.54038 6.54038L0.540381 12.5404L1.45962 13.4596ZM7.45962 6.54038L1.45962 0.54038L0.540381 1.45962L6.54038 7.45962L7.45962 6.54038Z" fill="#4D4F56"/>
</svg>
