<svg width="20" height="20" viewBox="0 0 20 20" fill="none" xmlns="http://www.w3.org/2000/svg">
<g id="icon, state=trash">
<path id="Icon" d="M2 4.5H18M8 14.5V8.5M12 14.5V8.5M14 18.5H6C4.89543 18.5 4 17.6046 4 16.5V5.5C4 4.94772 4.44771 4.5 5 4.5H15C15.5523 4.5 16 4.94772 16 5.5V16.5C16 17.6046 15.1046 18.5 14 18.5ZM8 4.5H12C12.5523 4.5 13 4.05229 13 3.5V2.5C13 1.94772 12.5523 1.5 12 1.5H8C7.44771 1.5 7 1.94772 7 2.5V3.5C7 4.05229 7.44771 4.5 8 4.5Z" stroke="#4D4F56" stroke-width="1.6" stroke-linecap="round" stroke-linejoin="round"/>
</g>
</svg>
