<svg width="316" height="280" viewBox="0 0 316 280" fill="none" xmlns="http://www.w3.org/2000/svg">
<rect width="316" height="277.879" rx="20" fill="#E7EFFF"/>
<ellipse cx="157.5" cy="142" rx="102.5" ry="87" fill="#C1D1F2"/>
<ellipse cx="170.267" cy="106.629" rx="30.3955" ry="25.3296" fill="#FFBB55"/>
<ellipse cx="169.805" cy="118.143" rx="39.1458" ry="29.4745" fill="#FFCD4D"/>
<path d="M146.637 173.579C148.581 162.302 158.362 154.064 169.805 154.064C181.248 154.064 191.029 162.302 192.973 173.579L196.961 196.71C197.932 202.34 193.597 207.486 187.884 207.486H151.726C146.013 207.486 141.678 202.34 142.649 196.71L146.637 173.579Z" fill="#FFCD4D"/>
<path fill-rule="evenodd" clip-rule="evenodd" d="M177.768 173.144C182.782 173.144 186.847 169.079 186.847 164.064C186.847 159.05 182.782 154.985 177.768 154.985C174.652 154.985 171.902 156.555 170.267 158.947C168.632 156.555 165.883 154.985 162.767 154.985C157.752 154.985 153.688 159.05 153.688 164.065C153.688 169.079 157.752 173.144 162.767 173.144C165.883 173.144 168.632 171.574 170.267 169.182C171.902 171.574 174.652 173.144 177.768 173.144Z" fill="white"/>
<path d="M203.424 132.88C203.424 151.702 196.055 166.96 170.265 166.96C144.475 166.96 137.106 151.702 137.106 132.88C137.106 114.058 151.952 98.8003 170.265 98.8003C188.578 98.8003 203.424 114.058 203.424 132.88Z" fill="#FFF5EC"/>
<ellipse cx="201.582" cy="140.248" rx="10.1318" ry="11.0529" fill="#FFF5EC"/>
<ellipse cx="138.027" cy="140.248" rx="10.1318" ry="11.0529" fill="#FFF5EC"/>
<path d="M203.424 132.879C203.424 151.7 196.055 166.958 170.265 166.958C144.475 166.958 137.106 151.7 137.106 132.879C137.106 114.057 141.712 96.0355 170.265 96.0355C196.976 96.0355 203.424 114.057 203.424 132.879Z" fill="#FFF5EC"/>
<path fill-rule="evenodd" clip-rule="evenodd" d="M137.132 129.523C137.113 130.119 137.662 130.571 138.245 130.448C141.469 129.77 144.857 129.192 148.379 128.726C148.684 128.686 148.948 128.498 149.086 128.224L151 124.395C151.339 123.716 152.308 123.716 152.648 124.395L154.191 127.483C154.361 127.822 154.721 128.023 155.099 127.99C158.775 127.667 162.568 127.463 166.449 127.388C166.793 127.381 167.105 127.185 167.258 126.878L169.42 122.555C169.759 121.876 170.728 121.876 171.068 122.555L173.239 126.897C173.392 127.203 173.701 127.399 174.043 127.407C177.911 127.502 181.689 127.725 185.347 128.065C185.727 128.1 186.089 127.9 186.26 127.559L187.842 124.395C188.181 123.716 189.15 123.716 189.489 124.395L191.468 128.352C191.604 128.624 191.866 128.811 192.168 128.853C195.664 129.339 199.022 129.935 202.215 130.63C202.802 130.758 203.357 130.303 203.332 129.702C202.603 112.082 195.439 96.0397 170.238 96.0397C143.389 96.0397 137.714 111.973 137.132 129.523Z" fill="#6F5D4D"/>
<circle cx="160.134" cy="137.485" r="3.68431" fill="#182031"/>
<circle cx="180.398" cy="137.485" r="3.68431" fill="#182031"/>
<path fill-rule="evenodd" clip-rule="evenodd" d="M138.028 143.391C139.63 139.905 143.152 137.485 147.239 137.485C152.835 137.485 157.371 142.021 157.371 147.617C157.371 153.213 152.835 157.749 147.239 157.749C146.216 157.749 145.228 157.597 144.297 157.315C141.038 153.493 139.063 148.73 138.028 143.391ZM196.235 157.315C195.304 157.597 194.316 157.749 193.293 157.749C187.697 157.749 183.161 153.213 183.161 147.617C183.161 142.021 187.697 137.485 193.293 137.485C197.38 137.485 200.902 139.905 202.504 143.39C201.469 148.73 199.494 153.493 196.235 157.315Z" fill="#FFE3DD"/>
<path d="M45.7416 173.579C47.6858 162.302 57.4666 154.064 68.9094 154.064C80.3522 154.064 90.1331 162.302 92.0773 173.579L96.0655 196.71C97.0361 202.34 92.7012 207.486 86.9886 207.486H50.8302C45.1177 207.486 40.7828 202.34 41.7534 196.71L45.7416 173.579Z" fill="#FFCD4D"/>
<path fill-rule="evenodd" clip-rule="evenodd" d="M76.8722 173.143C81.8864 173.143 85.9513 169.079 85.9513 164.064C85.9513 159.05 81.8864 154.985 76.8722 154.985C73.7561 154.985 71.0067 156.555 69.3716 158.947C67.7365 156.555 64.9871 154.985 61.8712 154.985C56.8569 154.985 52.792 159.05 52.792 164.065C52.792 169.079 56.8569 173.144 61.8712 173.144C64.9872 173.144 67.7366 171.574 69.3717 169.182C71.0069 171.574 73.7562 173.143 76.8722 173.143Z" fill="white"/>
<circle cx="43.5795" cy="103.405" r="11.974" fill="#755940"/>
<circle cx="95.1586" cy="103.405" r="11.974" fill="#755940"/>
<ellipse cx="100.687" cy="140.248" rx="10.1318" ry="11.0529" fill="#FFF5EC"/>
<ellipse cx="37.1318" cy="140.248" rx="10.1318" ry="11.0529" fill="#FFF5EC"/>
<path d="M102.527 132.879C102.527 151.7 95.1589 166.958 69.3687 166.958C43.5786 166.958 36.21 151.7 36.21 132.879C36.21 114.057 40.8153 96.0355 69.3687 96.0355C96.08 96.0355 102.527 114.057 102.527 132.879Z" fill="#FFF5EC"/>
<path fill-rule="evenodd" clip-rule="evenodd" d="M36.2359 129.523C36.2161 130.119 36.7652 130.571 37.3489 130.448C40.5723 129.77 43.9593 129.192 47.4813 128.726C47.7854 128.686 48.0502 128.498 48.1874 128.224L50.1018 124.395C50.4412 123.716 51.41 123.716 51.7495 124.395L53.2934 127.483C53.4631 127.822 53.8234 128.023 54.2014 127.99C57.8774 127.667 61.6705 127.463 65.5521 127.388C65.8956 127.381 66.2076 127.185 66.3612 126.878L68.5227 122.555C68.8622 121.876 69.831 121.876 70.1704 122.555L72.3416 126.897C72.4945 127.203 72.8042 127.399 73.146 127.407C77.0141 127.502 80.7916 127.725 84.4498 128.065C84.8294 128.1 85.1922 127.9 85.3627 127.559L86.9446 124.395C87.284 123.716 88.2528 123.716 88.5922 124.395L90.5705 128.352C90.7067 128.624 90.969 128.811 91.2707 128.853C94.7668 129.339 98.1255 129.935 101.318 130.63C101.906 130.758 102.461 130.303 102.436 129.703C101.707 112.082 94.543 96.0397 69.3412 96.0397C42.4929 96.0397 36.8179 111.973 36.2359 129.523Z" fill="#755940"/>
<circle cx="59.238" cy="137.485" r="3.68431" fill="#182031"/>
<circle cx="79.5007" cy="137.485" r="3.68431" fill="#182031"/>
<path fill-rule="evenodd" clip-rule="evenodd" d="M37.1318 143.39C38.7338 139.905 42.2556 137.485 46.3427 137.485C51.9384 137.485 56.4745 142.021 56.4745 147.617C56.4745 153.213 51.9384 157.749 46.3427 157.749C45.3193 157.749 44.3313 157.597 43.4001 157.315C40.1413 153.493 38.1662 148.73 37.1318 143.39ZM95.3392 157.315C94.4078 157.597 93.4198 157.749 92.3963 157.749C86.8006 157.749 82.2644 153.213 82.2644 147.617C82.2644 142.021 86.8006 137.485 92.3963 137.485C96.4835 137.485 100.005 139.905 101.607 143.391C100.573 148.73 98.5979 153.493 95.3392 157.315Z" fill="#FFE3DD"/>
<path d="M66.6207 143.012H72.1209C72.617 143.012 73.0008 143.446 72.9393 143.939C72.7146 145.736 71.9573 147.424 70.7648 148.787L70.064 149.588C69.697 150.007 69.0446 150.007 68.6776 149.588L67.9769 148.787C66.7844 147.424 66.027 145.736 65.8024 143.939C65.7409 143.446 66.1247 143.012 66.6207 143.012Z" fill="#FCB6C3"/>
<path fill-rule="evenodd" clip-rule="evenodd" d="M32.5343 174.717C30.2299 172.413 26.4937 172.413 24.1893 174.717C21.8848 177.022 21.8848 180.758 24.1893 183.063L31.2505 190.124L35.423 194.296L35.4235 194.296L35.7449 194.617L39.9174 190.445L46.9787 183.383C49.2831 181.079 49.2831 177.343 46.9787 175.038C44.6742 172.734 40.938 172.734 38.6336 175.038L35.7444 177.928L32.5343 174.717Z" fill="#FF8888"/>
<path d="M167.516 143.012H173.016C173.512 143.012 173.896 143.446 173.835 143.939C173.61 145.736 172.853 147.424 171.66 148.787L170.96 149.588C170.593 150.007 169.94 150.007 169.573 149.588L168.872 148.787C167.68 147.424 166.923 145.736 166.698 143.939C166.636 143.446 167.02 143.012 167.516 143.012Z" fill="#FCB6C3"/>
<path fill-rule="evenodd" clip-rule="evenodd" d="M130.419 162.139C129.151 160.87 127.094 160.87 125.826 162.139C124.558 163.407 124.558 165.463 125.826 166.731L129.712 170.617L132.008 172.914L132.009 172.913L132.186 173.09L134.482 170.794L138.368 166.908C139.636 165.64 139.636 163.583 138.368 162.315C137.1 161.047 135.044 161.047 133.775 162.315L132.185 163.905L130.419 162.139Z" fill="#FF8888"/>
<path fill-rule="evenodd" clip-rule="evenodd" d="M187.219 193.355C184.027 190.163 178.852 190.163 175.66 193.355C172.468 196.547 172.468 201.723 175.66 204.914L180.105 209.36L180.105 209.36L191.664 220.919L197.444 215.14L207.225 205.359C210.417 202.167 210.417 196.992 207.225 193.8C204.033 190.608 198.858 190.608 195.666 193.8L191.664 197.801L187.219 193.355Z" fill="#FF8888"/>
<rect x="243.618" y="195.576" width="11.1768" height="13.0396" transform="rotate(-45 243.618 195.576)" fill="#6487E2"/>
<rect width="18.6279" height="44.7071" rx="3.72559" transform="matrix(0.707107 -0.707107 -0.707107 -0.707107 281.817 239.043)" fill="#5678BE"/>
<rect x="243.618" y="195.576" width="11.1768" height="5.58838" transform="rotate(-45 243.618 195.576)" fill="#5678BE"/>
<circle cx="221.227" cy="165.281" r="34.4617" transform="rotate(-45 221.227 165.281)" fill="white" fill-opacity="0.5" stroke="#C1D1F2" stroke-width="1.86279"/>
<circle cx="221.227" cy="165.281" r="38.1873" transform="rotate(-45 221.227 165.281)" stroke="#6487E2" stroke-width="5.58838"/>
<path d="M197.518 154.743C195.761 158.256 194.093 167.915 201.469 178.452" stroke="white" stroke-width="7.45118" stroke-linecap="round"/>
<path fill-rule="evenodd" clip-rule="evenodd" d="M122.151 35C128.924 35 134.734 39.1199 137.212 44.9901C137.336 44.9873 137.46 44.986 137.584 44.986C146.609 44.986 153.925 52.302 153.925 61.3268C153.925 70.3516 146.609 77.6676 137.584 77.6676C134.248 77.6676 131.146 76.668 128.56 74.952C127.221 77.638 124.448 79.4833 121.243 79.4833C119.199 79.4833 117.331 78.7331 115.898 77.4931C113.9 79.8229 110.935 81.299 107.625 81.299C101.609 81.299 96.7314 76.4216 96.7314 70.4051C96.7314 69.0625 96.9743 67.7767 97.4185 66.5891C93.7875 64.8223 91.2852 61.0972 91.2852 56.7877C91.2852 50.7712 96.1625 45.8938 102.179 45.8938C103.699 45.8938 105.145 46.2049 106.459 46.7669C108.438 39.9683 114.714 35 122.151 35ZM88.5616 79.4833C91.0685 79.4833 93.1007 77.451 93.1007 74.9441C93.1007 72.4373 91.0685 70.405 88.5616 70.405C86.0547 70.405 84.0225 72.4373 84.0225 74.9441C84.0225 77.451 86.0547 79.4833 88.5616 79.4833ZM85.4469 86.7235C85.4469 88.2276 84.2276 89.4469 82.7235 89.4469C81.2193 89.4469 80 88.2276 80 86.7235C80 85.2193 81.2193 84 82.7235 84C84.2276 84 85.4469 85.2193 85.4469 86.7235ZM136.677 88.5614C138.181 88.5614 139.4 87.3421 139.4 85.838C139.4 84.3338 138.181 83.1145 136.677 83.1145C135.172 83.1145 133.953 84.3338 133.953 85.838C133.953 87.3421 135.172 88.5614 136.677 88.5614Z" fill="white"/>
<path d="M119.753 61.4113C119.761 60.5602 119.839 59.8722 119.987 59.3474C120.136 58.8155 120.349 58.3899 120.626 58.0708C120.909 57.7516 121.285 57.4466 121.753 57.1558C122.271 56.8154 122.668 56.4714 122.945 56.1239C123.229 55.7764 123.371 55.3757 123.371 54.9217C123.371 54.5742 123.289 54.2692 123.126 54.0068C122.963 53.7373 122.739 53.5281 122.456 53.3792C122.172 53.2302 121.86 53.1557 121.519 53.1557C121.179 53.1557 120.86 53.2302 120.562 53.3792C120.271 53.5281 120.034 53.748 119.849 54.0387C119.672 54.3224 119.576 54.6664 119.562 55.0707H116.541C116.562 54.1061 116.792 53.294 117.232 52.6345C117.679 51.9678 118.275 51.4713 119.019 51.1451C119.771 50.8117 120.612 50.645 121.541 50.645C122.527 50.645 123.402 50.8117 124.168 51.1451C124.934 51.4784 125.53 51.9607 125.956 52.5919C126.388 53.216 126.605 53.9572 126.605 54.8154C126.605 55.6523 126.406 56.3686 126.009 56.9643C125.619 57.5601 125.051 58.0779 124.307 58.5176C123.888 58.7729 123.555 59.0282 123.307 59.2836C123.066 59.5318 122.881 59.8261 122.754 60.1666C122.633 60.507 122.569 60.9219 122.562 61.4113V61.6453H119.753V61.4113ZM121.222 66.4539C120.895 66.4539 120.594 66.3724 120.317 66.2093C120.041 66.0461 119.821 65.8298 119.658 65.5603C119.502 65.2837 119.427 64.9858 119.434 64.6667C119.427 64.3475 119.502 64.0532 119.658 63.7837C119.821 63.5142 120.041 63.3014 120.317 63.1454C120.594 62.9822 120.895 62.9007 121.222 62.9007C121.527 62.9007 121.814 62.9822 122.083 63.1454C122.36 63.3014 122.58 63.5142 122.743 63.7837C122.906 64.0532 122.988 64.3475 122.988 64.6667C122.988 64.9858 122.906 65.2837 122.743 65.5603C122.58 65.8298 122.36 66.0461 122.083 66.2093C121.814 66.3724 121.527 66.4539 121.222 66.4539Z" fill="#96B5F3"/>
</svg>
