<svg width="338" height="300" viewBox="0 0 338 300" fill="none" xmlns="http://www.w3.org/2000/svg">
<rect width="338" height="297.225" rx="21.3924" fill="#E7EFFF"/>
<ellipse cx="168.465" cy="151.886" rx="109.636" ry="93.057" fill="#C1D1F2"/>
<ellipse cx="182.121" cy="114.052" rx="32.5117" ry="27.0931" fill="#FFBB55"/>
<ellipse cx="181.627" cy="126.368" rx="41.8711" ry="31.5265" fill="#FFCD4D"/>
<path d="M156.846 185.663C158.925 173.602 169.387 164.79 181.627 164.79C193.866 164.79 204.328 173.602 206.407 185.663L210.673 210.405C211.711 216.427 207.075 221.931 200.965 221.931H162.289C156.179 221.931 151.542 216.427 152.58 210.405L156.846 185.663Z" fill="#FFCD4D"/>
<path fill-rule="evenodd" clip-rule="evenodd" d="M190.143 185.198C195.506 185.198 199.854 180.85 199.854 175.487C199.854 170.123 195.506 165.775 190.143 165.775C186.81 165.775 183.869 167.454 182.12 170.012C180.371 167.454 177.431 165.775 174.098 165.775C168.735 165.775 164.387 170.123 164.387 175.487C164.387 180.85 168.735 185.198 174.098 185.198C177.431 185.198 180.372 183.519 182.121 180.961C183.869 183.519 186.81 185.198 190.143 185.198Z" fill="white"/>
<path d="M217.586 142.131C217.586 162.263 209.704 178.584 182.119 178.584C154.533 178.584 146.651 162.263 146.651 142.131C146.651 121.999 162.531 105.679 182.119 105.679C201.707 105.679 217.586 121.999 217.586 142.131Z" fill="#FFF5EC"/>
<ellipse cx="215.617" cy="150.012" rx="10.8372" ry="11.8224" fill="#FFF5EC"/>
<ellipse cx="147.637" cy="150.012" rx="10.8372" ry="11.8224" fill="#FFF5EC"/>
<path d="M217.586 142.13C217.586 162.262 209.704 178.582 182.119 178.582C154.533 178.582 146.651 162.262 146.651 142.13C146.651 121.997 151.577 102.722 182.119 102.722C210.69 102.722 217.586 121.997 217.586 142.13Z" fill="#FFF5EC"/>
<path fill-rule="evenodd" clip-rule="evenodd" d="M146.68 138.541C146.659 139.178 147.246 139.661 147.871 139.53C151.319 138.804 154.942 138.187 158.71 137.688C159.035 137.645 159.318 137.444 159.465 137.151L161.513 133.056C161.876 132.33 162.912 132.33 163.275 133.056L164.926 136.358C165.108 136.721 165.493 136.936 165.897 136.9C169.829 136.555 173.886 136.337 178.038 136.257C178.406 136.25 178.739 136.04 178.904 135.711L181.216 131.087C181.579 130.361 182.615 130.361 182.978 131.087L185.3 135.732C185.464 136.059 185.795 136.268 186.161 136.277C190.298 136.379 194.338 136.617 198.251 136.981C198.657 137.019 199.045 136.804 199.228 136.44L200.92 133.056C201.283 132.329 202.319 132.329 202.682 133.056L204.798 137.288C204.944 137.579 205.224 137.779 205.547 137.824C209.286 138.343 212.879 138.981 216.294 139.725C216.922 139.862 217.516 139.375 217.489 138.733C216.709 119.885 209.047 102.726 182.09 102.726C153.373 102.726 147.303 119.769 146.68 138.541Z" fill="#6F5D4D"/>
<circle cx="171.282" cy="147.056" r="3.94081" fill="#182031"/>
<circle cx="192.957" cy="147.056" r="3.94081" fill="#182031"/>
<path fill-rule="evenodd" clip-rule="evenodd" d="M147.638 153.372C149.351 149.645 153.118 147.057 157.489 147.057C163.474 147.057 168.326 151.909 168.326 157.894C168.326 163.879 163.474 168.731 157.489 168.731C156.395 168.731 155.339 168.569 154.343 168.268C150.857 164.179 148.744 159.084 147.638 153.372ZM209.898 168.267C208.901 168.569 207.844 168.731 206.749 168.731C200.764 168.731 195.912 163.879 195.912 157.894C195.912 151.909 200.764 147.057 206.749 147.057C211.121 147.057 214.889 149.646 216.602 153.375C215.495 159.086 213.383 164.179 209.898 168.267Z" fill="#FFE3DD"/>
<path d="M48.9259 185.663C51.0055 173.602 61.4673 164.79 73.7067 164.79C85.9462 164.79 96.408 173.602 98.4875 185.663L102.753 210.405C103.792 216.427 99.1548 221.931 93.0446 221.931H54.3689C48.2586 221.931 43.6219 216.427 44.6601 210.405L48.9259 185.663Z" fill="#FFCD4D"/>
<path fill-rule="evenodd" clip-rule="evenodd" d="M82.223 185.198C87.5864 185.198 91.9343 180.85 91.9343 175.487C91.9343 170.123 87.5864 165.775 82.223 165.775C78.8901 165.775 75.9494 167.454 74.2004 170.012C72.4515 167.454 69.5108 165.776 66.1781 165.776C60.8147 165.776 56.4668 170.123 56.4668 175.487C56.4668 180.85 60.8147 185.198 66.1781 185.198C69.5109 185.198 72.4517 183.519 74.2006 180.961C75.9496 183.519 78.8902 185.198 82.223 185.198Z" fill="white"/>
<circle cx="46.6133" cy="110.604" r="12.8076" fill="#755940"/>
<circle cx="101.783" cy="110.604" r="12.8076" fill="#755940"/>
<ellipse cx="107.697" cy="150.012" rx="10.8372" ry="11.8224" fill="#FFF5EC"/>
<ellipse cx="39.7171" cy="150.012" rx="10.8372" ry="11.8224" fill="#FFF5EC"/>
<path d="M109.665 142.13C109.665 162.262 101.783 178.582 74.1978 178.582C46.6121 178.582 38.7305 162.262 38.7305 142.13C38.7305 121.997 43.6565 102.722 74.1978 102.722C102.769 102.722 109.665 121.997 109.665 142.13Z" fill="#FFF5EC"/>
<path fill-rule="evenodd" clip-rule="evenodd" d="M38.7593 138.541C38.7382 139.178 39.3256 139.661 39.9499 139.53C43.3974 138.804 47.02 138.187 50.787 137.689C51.1122 137.646 51.3955 137.445 51.5422 137.151L53.5899 133.056C53.953 132.33 54.9892 132.33 55.3523 133.056L57.0037 136.359C57.1852 136.722 57.5706 136.936 57.9749 136.9C61.907 136.555 65.9644 136.337 70.1166 136.257C70.484 136.25 70.8176 136.04 70.982 135.711L73.294 131.087C73.6571 130.361 74.6933 130.361 75.0564 131.087L77.3788 135.732C77.5423 136.059 77.8736 136.269 78.2391 136.277C82.3765 136.379 86.4168 136.617 90.3296 136.981C90.7356 137.019 91.1237 136.804 91.306 136.44L92.9981 133.056C93.3611 132.33 94.3974 132.33 94.7604 133.056L96.8764 137.288C97.0222 137.579 97.3027 137.779 97.6254 137.824C101.365 138.343 104.958 138.981 108.373 139.725C109.001 139.862 109.595 139.375 109.568 138.733C108.788 119.885 101.126 102.726 74.1695 102.726C45.452 102.726 39.3819 119.769 38.7593 138.541Z" fill="#755940"/>
<circle cx="63.3617" cy="147.056" r="3.94081" fill="#182031"/>
<circle cx="85.0355" cy="147.056" r="3.94081" fill="#182031"/>
<path fill-rule="evenodd" clip-rule="evenodd" d="M39.7168 153.372C41.4306 149.645 45.1972 147.057 49.5682 147.057C55.5535 147.057 60.4054 151.909 60.4054 157.894C60.4054 163.879 55.5535 168.731 49.5682 168.731C48.4741 168.731 47.4178 168.569 46.4221 168.268C42.9359 164.179 40.8232 159.084 39.7168 153.372ZM101.977 168.267C100.981 168.569 99.9234 168.731 98.8282 168.731C92.843 168.731 87.991 163.879 87.991 157.894C87.991 151.909 92.843 147.057 98.8282 147.057C103.2 147.057 106.968 149.646 108.681 153.375C107.575 159.086 105.462 164.179 101.977 168.267Z" fill="#FFE3DD"/>
<path d="M71.259 152.968H77.1421C77.6727 152.968 78.0833 153.433 78.0174 153.96C77.7772 155.882 76.9671 157.688 75.6916 159.146L74.942 160.002C74.5495 160.451 73.8517 160.451 73.4591 160.002L72.7096 159.146C71.434 157.688 70.624 155.882 70.3837 153.96C70.3179 153.433 70.7284 152.968 71.259 152.968Z" fill="#FCB6C3"/>
<path fill-rule="evenodd" clip-rule="evenodd" d="M34.7991 186.881C32.3343 184.416 28.3379 184.416 25.8731 186.881C23.4082 189.346 23.4082 193.343 25.8731 195.807L33.4259 203.36L37.8889 207.823L37.8896 207.823L38.2336 208.166L42.6966 203.703L50.2494 196.151C52.7143 193.686 52.7143 189.689 50.2494 187.225C47.7845 184.76 43.7882 184.76 41.3233 187.225L38.2328 190.315L34.7991 186.881Z" fill="#FF8888"/>
<path d="M179.179 152.968H185.062C185.593 152.968 186.003 153.433 185.937 153.96C185.697 155.882 184.887 157.688 183.611 159.146L182.862 160.002C182.469 160.451 181.772 160.451 181.379 160.002L180.63 159.146C179.354 157.688 178.544 155.882 178.304 153.96C178.238 153.433 178.648 152.968 179.179 152.968Z" fill="#FCB6C3"/>
<path fill-rule="evenodd" clip-rule="evenodd" d="M139.498 173.427C138.142 172.07 135.942 172.07 134.586 173.427C133.229 174.783 133.229 176.983 134.586 178.339L138.742 182.496L141.198 184.952L141.199 184.951L141.388 185.141L143.844 182.685L148.001 178.528C149.358 177.172 149.358 174.972 148.001 173.616C146.645 172.259 144.445 172.259 143.089 173.616L141.388 175.317L139.498 173.427Z" fill="#FF8888"/>
<path fill-rule="evenodd" clip-rule="evenodd" d="M200.254 206.817C196.84 203.403 191.304 203.403 187.89 206.817C184.476 210.231 184.476 215.767 187.89 219.181L198.352 229.643L204.534 235.824L204.534 235.824L205.009 236.3L211.191 230.118L221.653 219.656C225.067 216.242 225.067 210.706 221.653 207.292C218.239 203.878 212.703 203.878 209.289 207.292L205.009 211.572L200.254 206.817Z" fill="#FF8888"/>
<rect x="260.579" y="209.192" width="11.9549" height="13.9474" transform="rotate(-45 260.579 209.192)" fill="#6487E2"/>
<rect width="19.9248" height="47.8196" rx="3.98497" transform="matrix(0.707107 -0.707107 -0.707107 -0.707107 301.438 255.686)" fill="#5678BE"/>
<rect x="260.579" y="209.192" width="11.9549" height="5.97745" transform="rotate(-45 260.579 209.192)" fill="#5678BE"/>
<circle cx="236.629" cy="176.787" r="36.8609" transform="rotate(-45 236.629 176.787)" fill="white" fill-opacity="0.5" stroke="#C1D1F2" stroke-width="1.99248"/>
<circle cx="236.629" cy="176.787" r="40.8459" transform="rotate(-45 236.629 176.787)" stroke="#6487E2" stroke-width="5.97745"/>
<path d="M211.269 165.516C209.39 169.273 207.606 179.605 215.496 190.876" stroke="white" stroke-width="7.96993" stroke-linecap="round"/>
<path fill-rule="evenodd" clip-rule="evenodd" d="M130.656 37.4366C137.9 37.4366 144.115 41.8433 146.766 48.1222C146.898 48.1193 147.03 48.1178 147.163 48.1178C156.816 48.1178 164.642 55.9432 164.642 65.5963C164.642 75.2494 156.816 83.0748 147.163 83.0748C143.595 83.0748 140.277 82.0056 137.511 80.1702C136.079 83.0432 133.112 85.0169 129.684 85.0169C127.499 85.0169 125.5 84.2144 123.968 82.8881C121.831 85.3801 118.659 86.959 115.119 86.959C108.684 86.959 103.467 81.7421 103.467 75.3067C103.467 73.8706 103.726 72.4951 104.202 71.2248C100.318 69.3349 97.6416 65.3506 97.6416 60.7412C97.6416 54.3058 102.859 49.0889 109.294 49.0889C110.919 49.0889 112.466 49.4216 113.872 50.0225C115.988 42.7507 122.701 37.4366 130.656 37.4366ZM94.728 85.0168C97.4094 85.0168 99.5831 82.8431 99.5831 80.1617C99.5831 77.4803 97.4094 75.3066 94.728 75.3066C92.0465 75.3066 89.8728 77.4803 89.8728 80.1617C89.8728 82.8431 92.0465 85.0168 94.728 85.0168ZM91.3965 92.7611C91.3965 94.37 90.0922 95.6742 88.4834 95.6742C86.8745 95.6742 85.5703 94.37 85.5703 92.7611C85.5703 91.1523 86.8745 89.848 88.4834 89.848C90.0922 89.848 91.3965 91.1523 91.3965 92.7611ZM146.192 94.727C147.801 94.727 149.105 93.4228 149.105 91.814C149.105 90.2051 147.801 88.9009 146.192 88.9009C144.584 88.9009 143.279 90.2051 143.279 91.814C143.279 93.4228 144.584 94.727 146.192 94.727Z" fill="white"/>
<path d="M128.09 66.0159C128.098 65.1056 128.182 64.3697 128.341 63.8083C128.5 63.2394 128.728 62.7842 129.024 62.4428C129.327 62.1015 129.729 61.7753 130.23 61.4642C130.784 61.1001 131.208 60.7322 131.504 60.3604C131.808 59.9887 131.959 59.5601 131.959 59.0746C131.959 58.7029 131.872 58.3767 131.698 58.096C131.523 57.8077 131.284 57.5839 130.981 57.4246C130.677 57.2653 130.344 57.1856 129.979 57.1856C129.615 57.1856 129.274 57.2653 128.955 57.4246C128.644 57.5839 128.39 57.8191 128.193 58.1301C128.003 58.4336 127.901 58.8015 127.886 59.2339H124.654C124.677 58.2022 124.923 57.3336 125.394 56.6281C125.872 55.915 126.509 55.3839 127.305 55.035C128.109 54.6784 129.008 54.5001 130.002 54.5001C131.057 54.5001 131.994 54.6784 132.813 55.035C133.632 55.3915 134.269 55.9074 134.725 56.5825C135.187 57.2501 135.419 58.0429 135.419 58.9608C135.419 59.856 135.206 60.6222 134.781 61.2594C134.364 61.8966 133.757 62.4504 132.961 62.9208C132.513 63.1939 132.157 63.467 131.891 63.7401C131.633 64.0056 131.436 64.3204 131.299 64.6845C131.17 65.0487 131.102 65.4925 131.095 66.0159V66.2663H128.09V66.0159ZM129.661 71.4097C129.312 71.4097 128.989 71.3224 128.694 71.1479C128.398 70.9735 128.163 70.7421 127.988 70.4538C127.821 70.1579 127.742 69.8393 127.749 69.498C127.742 69.1566 127.821 68.8417 127.988 68.5535C128.163 68.2652 128.398 68.0376 128.694 67.8707C128.989 67.6962 129.312 67.609 129.661 67.609C129.987 67.609 130.294 67.6962 130.583 67.8707C130.878 68.0376 131.114 68.2652 131.288 68.5535C131.463 68.8417 131.55 69.1566 131.55 69.498C131.55 69.8393 131.463 70.1579 131.288 70.4538C131.114 70.7421 130.878 70.9735 130.583 71.1479C130.294 71.3224 129.987 71.4097 129.661 71.4097Z" fill="#96B5F3"/>
</svg>
