<svg width="316" height="280" viewBox="0 0 316 280" fill="none" xmlns="http://www.w3.org/2000/svg">
<rect width="316" height="280" rx="20" fill="#E1F3EA"/>
<circle cx="157" cy="140" r="98" fill="#B7E6D1" stroke="#B7E6D1" stroke-width="6"/>
<path d="M155 149V108.5L172.5 82L191.5 122V164.5L155 149Z" fill="#FFF4E9"/>
<path d="M249 139V98.5L191 122V164.5L249 139Z" fill="#F3E4D4"/>
<path d="M193.5 125.5L169.5 81.5L234 59.5L255.5 99L193.5 125.5Z" fill="#FFB3B3"/>
<path d="M151 112.829L169.156 81.5L174 83L193.5 125.5L188.5 123.5L171 85L153.5 114L151 112.829Z" fill="#DDA1A1"/>
<path d="M169.2 81.5L230.5 58L234 59.5L174 83L169.2 81.5Z" fill="#FFC9C9"/>
<path d="M163.5 118.943C163.5 118.594 163.849 118.352 164.176 118.475L178.176 123.725C178.371 123.798 178.5 123.985 178.5 124.193V144.057C178.5 144.406 178.151 144.648 177.824 144.525L163.824 139.275C163.629 139.202 163.5 139.015 163.5 138.807V118.943Z" fill="#D9EDFF" stroke="#C6E1F5"/>
<path d="M170.5 120.5V142" stroke="#C6E1F5"/>
<path d="M178.5 135L163.5 129.5" stroke="#C6E1F5"/>
<path d="M113 157V131L84 145.5L113 157Z" fill="#6AB876"/>
<path d="M113 157V131L142 145.5L113 157Z" fill="#6AB876"/>
<path d="M113 161V157L84 145.5V149L113 161Z" fill="#5DA980"/>
<path d="M113 161V157L142 145.5V149L113 161Z" fill="#5DA980"/>
<path fill-rule="evenodd" clip-rule="evenodd" d="M105 108H113H121V144.5V145H120.951C120.509 147.25 117.118 149 113 149C108.882 149 105.491 147.25 105.049 145H105V144.5V108Z" fill="#978C86"/>
<path d="M113 122.5V66L84 111L113 122.5Z" fill="#5DA980"/>
<path d="M113 122.5V66L142 111L113 122.5Z" fill="#5DA980"/>
<path d="M113 102.5V46L84 91L113 102.5Z" fill="#6AB976"/>
<path d="M113 102.5V46L142 91L113 102.5Z" fill="#6AB976"/>
<circle cx="74" cy="77" r="15" fill="#B7E6D1"/>
<circle cx="85" cy="45" r="6" fill="#B7E6D1"/>
<circle cx="45.5" cy="88.5" r="4.5" fill="#B7E6D1"/>
<circle cx="268" cy="190" r="6" fill="#B7E6D1"/>
<circle cx="238.5" cy="200.5" r="13.5" fill="#B7E6D1"/>
<path d="M133.273 188.795C134.546 181.411 140.951 176.016 148.444 176.016C155.938 176.016 162.343 181.411 163.616 188.795L166.228 203.943C166.863 207.63 164.025 211 160.284 211H136.605C132.864 211 130.025 207.63 130.661 203.943L133.273 188.795Z" fill="#61CA91"/>
<path d="M157 182C157 185.314 153.418 188 149 188C144.582 188 141 185.314 141 182C141 178.686 144.582 176 149 176C153.418 176 157 178.686 157 182Z" fill="#F8ECE1"/>
<ellipse cx="169.254" cy="166.969" rx="6.63493" ry="7.23811" fill="#FFF5EC"/>
<ellipse cx="127.635" cy="166.969" rx="6.63493" ry="7.23811" fill="#FFF5EC"/>
<path d="M170.46 162.143C170.46 174.468 165.635 184.46 148.746 184.46C131.857 184.46 127.031 174.468 127.031 162.143C127.031 149.817 130.047 138.016 148.746 138.016C166.238 138.016 170.46 149.817 170.46 162.143Z" fill="#FFF5EC"/>
<path fill-rule="evenodd" clip-rule="evenodd" d="M127.026 163.253C127.021 163.648 127.393 163.939 127.777 163.847C129.884 163.339 132.098 162.906 134.4 162.556C134.606 162.525 134.782 162.391 134.865 162.2L136.115 159.334C136.326 158.851 137.01 158.851 137.221 159.334L138.226 161.639C138.331 161.88 138.581 162.025 138.842 161.998C141.234 161.759 143.701 161.607 146.226 161.55C146.462 161.545 146.673 161.404 146.768 161.188L148.179 157.953C148.389 157.47 149.074 157.47 149.284 157.953L150.702 161.202C150.796 161.417 151.006 161.558 151.24 161.565C153.756 161.636 156.212 161.802 158.592 162.055C158.855 162.083 159.106 161.938 159.212 161.695L160.242 159.334C160.453 158.851 161.137 158.851 161.348 159.334L162.64 162.296C162.723 162.485 162.896 162.619 163.1 162.652C165.433 163.023 167.671 163.481 169.797 164.016C170.171 164.11 170.539 163.836 170.548 163.451C170.862 149.714 164.648 138.018 148.727 138.018C129.189 138.018 127.191 150.039 127.026 163.253Z" fill="#755940"/>
<circle cx="142.111" cy="168.159" r="2.4127" fill="#182031"/>
<circle cx="155.38" cy="168.159" r="2.4127" fill="#182031"/>
<path fill-rule="evenodd" clip-rule="evenodd" d="M127.635 169.028C128.683 166.745 130.99 165.159 133.667 165.159C137.332 165.159 140.302 168.13 140.302 171.794C140.302 175.459 137.332 178.429 133.667 178.429C132.997 178.429 132.349 178.33 131.739 178.145C129.605 175.642 128.312 172.524 127.635 169.028ZM165.752 178.146C165.142 178.33 164.496 178.429 163.826 178.429C160.162 178.429 157.192 175.459 157.192 171.794C157.192 168.13 160.162 165.159 163.826 165.159C166.502 165.159 168.808 166.743 169.857 169.024C169.18 172.522 167.886 175.642 165.752 178.146Z" fill="#FFE3DD"/>
</svg>
